<mxfile host="app.diagrams.net" agent="Mozilla/5.0 (Windows NT 10.0; Win64; x64) AppleWebKit/537.36 (KHTML, like Gecko) Chrome/137.0.0.0 Safari/537.36" version="27.2.0">
  <diagram id="KRG-sjebez78_4-_Vy49" name="Page-1">
    <mxGraphModel dx="1042" dy="535" grid="1" gridSize="10" guides="1" tooltips="1" connect="1" arrows="1" fold="1" page="1" pageScale="1" pageWidth="850" pageHeight="1100" background="light-dark(#001933,#252526)" math="0" shadow="0">
      <root>
        <mxCell id="0" />
        <mxCell id="1" parent="0" />
        <mxCell id="13" value="" style="rounded=0;whiteSpace=wrap;html=1;fillColor=none;" parent="1" vertex="1">
          <mxGeometry x="480" y="280" width="180" height="420" as="geometry" />
        </mxCell>
        <mxCell id="24" value="" style="group;fillColor=none;" parent="1" vertex="1" connectable="0">
          <mxGeometry x="80" y="70" width="610" height="170" as="geometry" />
        </mxCell>
        <mxCell id="11" value="&lt;div style=&quot;text-align: justify;&quot;&gt;&lt;br&gt;&lt;/div&gt;" style="rounded=0;whiteSpace=wrap;html=1;fillColor=none;" parent="24" vertex="1">
          <mxGeometry width="610" height="170" as="geometry" />
        </mxCell>
        <mxCell id="41" style="edgeStyle=none;shape=connector;rounded=1;html=1;exitX=0.5;exitY=1;exitDx=0;exitDy=0;dashed=1;dashPattern=1 3;strokeColor=default;strokeWidth=2;align=center;verticalAlign=middle;fontFamily=Helvetica;fontSize=11;fontColor=default;labelBackgroundColor=default;endArrow=none;" parent="24" source="4" edge="1">
          <mxGeometry relative="1" as="geometry">
            <mxPoint x="180" y="210" as="targetPoint" />
            <Array as="points">
              <mxPoint x="55" y="210" />
            </Array>
          </mxGeometry>
        </mxCell>
        <mxCell id="78" style="edgeStyle=none;html=1;exitX=1;exitY=0.5;exitDx=0;exitDy=0;entryX=0;entryY=0.5;entryDx=0;entryDy=0;" parent="24" source="4" target="5" edge="1">
          <mxGeometry relative="1" as="geometry" />
        </mxCell>
        <mxCell id="4" value="Process Manager" style="rounded=0;whiteSpace=wrap;html=1;fillColor=none;" parent="24" vertex="1">
          <mxGeometry x="20" y="100" width="70" height="50" as="geometry" />
        </mxCell>
        <mxCell id="45" style="edgeStyle=none;shape=connector;rounded=1;html=1;exitX=0.25;exitY=1;exitDx=0;exitDy=0;dashed=1;dashPattern=1 3;strokeColor=default;strokeWidth=2;align=center;verticalAlign=middle;fontFamily=Helvetica;fontSize=11;fontColor=default;labelBackgroundColor=default;endArrow=none;" parent="24" source="5" edge="1">
          <mxGeometry relative="1" as="geometry">
            <mxPoint x="128" y="210" as="targetPoint" />
          </mxGeometry>
        </mxCell>
        <mxCell id="5" value="Window Service" style="rounded=0;whiteSpace=wrap;html=1;fillColor=none;" parent="24" vertex="1">
          <mxGeometry x="110" y="100" width="70" height="50" as="geometry" />
        </mxCell>
        <mxCell id="44" style="edgeStyle=none;shape=connector;rounded=1;html=1;exitX=0.5;exitY=1;exitDx=0;exitDy=0;dashed=1;dashPattern=1 3;strokeColor=default;strokeWidth=2;align=center;verticalAlign=middle;fontFamily=Helvetica;fontSize=11;fontColor=default;labelBackgroundColor=default;endArrow=none;" parent="24" source="7" edge="1">
          <mxGeometry relative="1" as="geometry">
            <mxPoint x="220" y="210" as="targetPoint" />
            <Array as="points">
              <mxPoint x="240" y="210" />
            </Array>
          </mxGeometry>
        </mxCell>
        <mxCell id="7" value="App Loader Service" style="rounded=0;whiteSpace=wrap;html=1;fillColor=none;" parent="24" vertex="1">
          <mxGeometry x="200" y="90" width="80" height="60" as="geometry" />
        </mxCell>
        <mxCell id="43" style="edgeStyle=none;shape=connector;rounded=1;html=1;exitX=0.5;exitY=1;exitDx=0;exitDy=0;dashed=1;dashPattern=1 3;strokeColor=default;strokeWidth=2;align=center;verticalAlign=middle;fontFamily=Helvetica;fontSize=11;fontColor=default;labelBackgroundColor=default;endArrow=none;" parent="24" source="8" edge="1">
          <mxGeometry relative="1" as="geometry">
            <mxPoint x="180" y="210" as="targetPoint" />
            <Array as="points">
              <mxPoint x="340" y="210" />
            </Array>
          </mxGeometry>
        </mxCell>
        <mxCell id="8" value="File Association Service" style="rounded=0;whiteSpace=wrap;html=1;fillColor=none;" parent="24" vertex="1">
          <mxGeometry x="300" y="80" width="80" height="70" as="geometry" />
        </mxCell>
        <mxCell id="12" value="&lt;font style=&quot;font-size: 18px;&quot;&gt;Services Manager&lt;/font&gt;" style="text;html=1;align=center;verticalAlign=middle;whiteSpace=wrap;rounded=0;" parent="24" vertex="1">
          <mxGeometry x="30" width="170" height="70" as="geometry" />
        </mxCell>
        <mxCell id="63" style="edgeStyle=none;html=1;exitX=0;exitY=0.25;exitDx=0;exitDy=0;entryX=0.603;entryY=1;entryDx=0;entryDy=0;entryPerimeter=0;" parent="1" source="15" target="5" edge="1">
          <mxGeometry relative="1" as="geometry">
            <Array as="points">
              <mxPoint x="440" y="375" />
              <mxPoint x="440" y="310" />
              <mxPoint x="233" y="310" />
            </Array>
          </mxGeometry>
        </mxCell>
        <mxCell id="65" style="edgeStyle=none;html=1;exitX=0;exitY=0.25;exitDx=0;exitDy=0;entryX=0.75;entryY=1;entryDx=0;entryDy=0;" parent="1" source="16" target="4" edge="1">
          <mxGeometry relative="1" as="geometry">
            <Array as="points">
              <mxPoint x="350" y="590" />
              <mxPoint x="350" y="330" />
              <mxPoint x="153" y="330" />
            </Array>
          </mxGeometry>
        </mxCell>
        <mxCell id="46" style="edgeStyle=none;shape=connector;rounded=1;html=1;exitX=0.5;exitY=0;exitDx=0;exitDy=0;dashed=1;dashPattern=1 3;strokeColor=default;strokeWidth=2;align=center;verticalAlign=middle;fontFamily=Helvetica;fontSize=11;fontColor=default;labelBackgroundColor=default;endArrow=none;" parent="1" source="22" edge="1">
          <mxGeometry relative="1" as="geometry">
            <mxPoint x="216" y="280" as="targetPoint" />
          </mxGeometry>
        </mxCell>
        <mxCell id="79" value="" style="group;fillColor=none;" parent="1" vertex="1" connectable="0">
          <mxGeometry x="80" y="370" width="190" height="150" as="geometry" />
        </mxCell>
        <mxCell id="20" value="" style="rounded=0;whiteSpace=wrap;html=1;container=0;fillColor=none;" parent="79" vertex="1">
          <mxGeometry width="190" height="150" as="geometry" />
        </mxCell>
        <mxCell id="21" value="&lt;font style=&quot;font-size: 18px;&quot;&gt;Main App&lt;/font&gt;" style="text;html=1;align=center;verticalAlign=middle;whiteSpace=wrap;rounded=0;container=0;" parent="79" vertex="1">
          <mxGeometry x="11.879999999999995" y="10" width="78.13" height="40" as="geometry" />
        </mxCell>
        <mxCell id="22" value="Services Widget" style="rounded=0;whiteSpace=wrap;html=1;container=0;fillColor=none;" parent="79" vertex="1">
          <mxGeometry x="100" y="10" width="71.25" height="40" as="geometry" />
        </mxCell>
        <mxCell id="14" value="&lt;font style=&quot;font-size: 18px;&quot;&gt;Main Screen&lt;/font&gt;" style="text;html=1;align=center;verticalAlign=middle;whiteSpace=wrap;rounded=0;" parent="1" vertex="1">
          <mxGeometry x="500" y="290" width="140" height="60" as="geometry" />
        </mxCell>
        <mxCell id="15" value="Desktop" style="rounded=0;whiteSpace=wrap;html=1;fillColor=none;" parent="1" vertex="1">
          <mxGeometry x="500" y="350" width="140" height="100" as="geometry" />
        </mxCell>
        <mxCell id="51" style="edgeStyle=none;shape=connector;rounded=1;html=1;exitX=0;exitY=0.75;exitDx=0;exitDy=0;dashed=1;dashPattern=1 3;strokeColor=default;strokeWidth=2;align=center;verticalAlign=middle;fontFamily=Helvetica;fontSize=11;fontColor=default;labelBackgroundColor=default;endArrow=none;" parent="1" source="16" edge="1">
          <mxGeometry relative="1" as="geometry">
            <mxPoint x="400" y="490" as="targetPoint" />
            <Array as="points">
              <mxPoint x="400" y="610" />
            </Array>
          </mxGeometry>
        </mxCell>
        <mxCell id="16" value="Start Menu" style="rounded=0;whiteSpace=wrap;html=1;fillColor=none;" parent="1" vertex="1">
          <mxGeometry x="500" y="580" width="100" height="40" as="geometry" />
        </mxCell>
        <mxCell id="17" value="File Explorer" style="rounded=0;whiteSpace=wrap;html=1;fillColor=none;" parent="1" vertex="1">
          <mxGeometry x="500" y="510" width="100" height="50" as="geometry" />
        </mxCell>
        <mxCell id="53" style="edgeStyle=none;shape=connector;rounded=1;html=1;exitX=0;exitY=0.75;exitDx=0;exitDy=0;dashed=1;dashPattern=1 3;strokeColor=default;strokeWidth=2;align=center;verticalAlign=middle;fontFamily=Helvetica;fontSize=11;fontColor=default;labelBackgroundColor=default;endArrow=none;" parent="1" source="18" edge="1">
          <mxGeometry relative="1" as="geometry">
            <mxPoint x="400" y="460" as="targetPoint" />
            <Array as="points">
              <mxPoint x="400" y="490" />
            </Array>
          </mxGeometry>
        </mxCell>
        <mxCell id="18" value="File Chooser Screen" style="rounded=0;whiteSpace=wrap;html=1;fillColor=none;" parent="1" vertex="1">
          <mxGeometry x="500" y="460" width="140" height="40" as="geometry" />
        </mxCell>
        <mxCell id="69" style="edgeStyle=none;html=1;exitX=1;exitY=0.25;exitDx=0;exitDy=0;entryX=0.864;entryY=1.013;entryDx=0;entryDy=0;entryPerimeter=0;" parent="1" source="17" target="18" edge="1">
          <mxGeometry relative="1" as="geometry">
            <mxPoint x="623" y="490" as="targetPoint" />
            <Array as="points">
              <mxPoint x="623" y="523" />
            </Array>
          </mxGeometry>
        </mxCell>
        <mxCell id="80" value="Taskbar" style="rounded=0;whiteSpace=wrap;html=1;fillColor=none;" parent="1" vertex="1">
          <mxGeometry x="500" y="640" width="100" height="40" as="geometry" />
        </mxCell>
        <mxCell id="47" style="edgeStyle=none;shape=connector;rounded=1;html=1;exitX=1;exitY=0.5;exitDx=0;exitDy=0;dashed=1;dashPattern=1 3;strokeColor=default;strokeWidth=2;align=center;verticalAlign=middle;fontFamily=Helvetica;fontSize=11;fontColor=default;labelBackgroundColor=default;endArrow=none;entryX=0;entryY=0.5;entryDx=0;entryDy=0;" parent="1" source="22" target="15" edge="1">
          <mxGeometry relative="1" as="geometry">
            <mxPoint x="400" y="440" as="targetPoint" />
            <Array as="points">
              <mxPoint x="350" y="400" />
              <mxPoint x="400" y="400" />
              <mxPoint x="440" y="400" />
            </Array>
          </mxGeometry>
        </mxCell>
        <mxCell id="49" value="" style="edgeStyle=none;orthogonalLoop=1;jettySize=auto;html=1;rounded=1;dashed=1;dashPattern=1 3;strokeColor=default;strokeWidth=2;align=center;verticalAlign=middle;fontFamily=Helvetica;fontSize=11;fontColor=default;labelBackgroundColor=default;endArrow=none;entryX=0;entryY=0.75;entryDx=0;entryDy=0;" parent="1" target="17" edge="1">
          <mxGeometry width="80" relative="1" as="geometry">
            <mxPoint x="380" y="400" as="sourcePoint" />
            <mxPoint x="490" y="430" as="targetPoint" />
            <Array as="points">
              <mxPoint x="400" y="400" />
              <mxPoint x="400" y="548" />
            </Array>
          </mxGeometry>
        </mxCell>
        <mxCell id="73" value="" style="endArrow=none;html=1;exitX=0;exitY=0.25;exitDx=0;exitDy=0;" parent="1" source="18" edge="1">
          <mxGeometry width="50" height="50" relative="1" as="geometry">
            <mxPoint x="410" y="440" as="sourcePoint" />
            <mxPoint x="350" y="450" as="targetPoint" />
            <Array as="points">
              <mxPoint x="350" y="470" />
            </Array>
          </mxGeometry>
        </mxCell>
        <mxCell id="83" style="edgeStyle=none;html=1;exitX=0.75;exitY=1;exitDx=0;exitDy=0;entryX=0;entryY=0.25;entryDx=0;entryDy=0;" parent="1" source="5" target="80" edge="1">
          <mxGeometry relative="1" as="geometry">
            <Array as="points">
              <mxPoint x="243" y="300" />
              <mxPoint x="340" y="300" />
              <mxPoint x="340" y="650" />
            </Array>
          </mxGeometry>
        </mxCell>
        <mxCell id="84" value="Update Taskbar" style="text;html=1;align=center;verticalAlign=middle;whiteSpace=wrap;rounded=0;" parent="1" vertex="1">
          <mxGeometry x="360" y="650" width="110" height="20" as="geometry" />
        </mxCell>
        <mxCell id="88" value="Start Process" style="text;html=1;align=center;verticalAlign=middle;whiteSpace=wrap;rounded=0;" parent="1" vertex="1">
          <mxGeometry x="150" y="310" width="50" height="40" as="geometry" />
        </mxCell>
        <mxCell id="90" value="Register Mounting Callback" style="text;html=1;align=center;verticalAlign=middle;whiteSpace=wrap;rounded=0;" parent="1" vertex="1">
          <mxGeometry x="350" y="290" width="120" height="40" as="geometry" />
        </mxCell>
      </root>
    </mxGraphModel>
  </diagram>
</mxfile>
